<?xml version="1.0" encoding="iso-8859-1"?>
<!-- Generator: Adobe Illustrator 19.0.0, SVG Export Plug-In . SVG Version: 6.00 Build 0)  -->
<svg version="1.1" id="Capa_1" xmlns="http://www.w3.org/2000/svg" xmlns:xlink="http://www.w3.org/1999/xlink" x="0px" y="0px"
	 viewBox="0 0 489.713 489.713" style="enable-background:new 0 0 489.713 489.713;" xml:space="preserve" fill="white">
<g>
	<g>
		<g>

				<rect x="-23.259" y="83.778" transform="matrix(0.3577 -0.9338 0.9338 0.3577 -69.9143 95.805)" width="115.896" height="29.899"/>

				<rect x="157.204" y="147.335" transform="matrix(-0.3577 0.9338 -0.9338 -0.3577 424.6545 32.4931)" width="87.897" height="29.899"/>

				<rect x="341.538" y="214.138" transform="matrix(0.3577 -0.9338 0.9338 0.3577 26.9203 497.3143)" width="66.898" height="29.899"/>
			<path d="M260.511,223.884l70.4,22.2l22.6-58.7l-105.8-48.2l-27.6,71.9l19.1,5.8l-87.1,220.1c-1.9,5.1,0.4,10.9,5.4,12.8
				c5.1,1.9,10.9-0.4,12.8-5.4l68.1-172.3v124.8c0,5.4,4.3,10.1,10.1,10.1c5.4,0,10.1-4.3,10.1-10.1v-124.8l68.1,171.9
				c1.6,3.9,6.8,7.9,12.8,5.4c5.1-1.9,7.8-7.8,5.4-12.8L260.511,223.884z"/>
			<polygon points="183.811,110.284 84.711,65.184 49.311,157.384 153.511,189.984 			"/>

				<rect x="460.521" y="260.961" transform="matrix(0.3577 -0.9338 0.9338 0.3577 55.9995 617.7395)" width="33.099" height="14.4"/>
			<polygon points="397.711,266.684 443.211,280.984 460.411,235.884 417.211,216.084 			"/>
		</g>
	</g>
</g>
<g>
</g>
<g>
</g>
<g>
</g>
<g>
</g>
<g>
</g>
<g>
</g>
<g>
</g>
<g>
</g>
<g>
</g>
<g>
</g>
<g>
</g>
<g>
</g>
<g>
</g>
<g>
</g>
<g>
</g>
</svg>
